STARTFONT 2.1
FONT -FreeType-Alef-Bold-R-Normal--14-100-100-100-P-80-ISO10646-1
SIZE 10 100 100
FONTBOUNDINGBOX 14 18 -1 -4
COMMENT "Generated by fontforge, http://fontforge.sourceforge.net"
COMMENT "Copyright (c) 2012 by Hagilda. All rights reserved."
STARTPROPERTIES 31
FOUNDRY "FreeType"
FAMILY_NAME "Alef"
WEIGHT_NAME "Bold"
SLANT "R"
SETWIDTH_NAME "Normal"
ADD_STYLE_NAME ""
PIXEL_SIZE 14
POINT_SIZE 100
RESOLUTION_X 100
RESOLUTION_Y 100
SPACING "P"
AVERAGE_WIDTH 80
CHARSET_REGISTRY "ISO10646"
CHARSET_ENCODING "1"
FONTNAME_REGISTRY ""
CHARSET_COLLECTIONS "ISO8859-2 ISO8859-9 ISO8859-8 ISO8859-4 ISO10646-1"
FONT_NAME "AlefBold"
FACE_NAME "Alef Bold"
COPYRIGHT "Copyright (c) 2012 by Hagilda. All rights reserved."
FONT_VERSION "001.000"
FONT_ASCENT 14
FONT_DESCENT 0
UNDERLINE_POSITION -1
UNDERLINE_THICKNESS 1
X_HEIGHT 7
CAP_HEIGHT 10
RAW_ASCENT 1000
RAW_DESCENT 0
NORM_SPACE 4
AVG_LOWERCASE_WIDTH 82
AVG_UPPERCASE_WIDTH 97
ENDPROPERTIES
CHARS 423
STARTCHAR $0000
ENCODING 0
SWIDTH 1000 0
DWIDTH 14 0
BBX 0 0 0 0
BITMAP
ENDCHAR
STARTCHAR $000D
ENCODING 13
SWIDTH 1000 0
DWIDTH 14 0
BBX 0 0 0 0
BITMAP
ENDCHAR
STARTCHAR $0020
ENCODING 32
SWIDTH 280 0
DWIDTH 4 0
BBX 0 0 0 0
BITMAP
ENDCHAR
STARTCHAR $0021
ENCODING 33
SWIDTH 360 0
DWIDTH 6 0
BBX 2 10 1 1
BITMAP
C0
C0
40
40
40
40
40
00
40
40
ENDCHAR
STARTCHAR $0022
ENCODING 34
SWIDTH 440 0
DWIDTH 7 0
BBX 5 4 1 6
BITMAP
58
58
D8
90
ENDCHAR
STARTCHAR $0023
ENCODING 35
SWIDTH 640 0
DWIDTH 9 0
BBX 5 6 2 2
BITMAP
20
28
78
50
F8
90
ENDCHAR
STARTCHAR $0024
ENCODING 36
SWIDTH 640 0
DWIDTH 9 0
BBX 7 12 1 -1
BITMAP
18
7E
F0
D0
D0
78
1E
16
12
1E
FC
10
ENDCHAR
STARTCHAR $0025
ENCODING 37
SWIDTH 640 0
DWIDTH 9 0
BBX 7 10 1 1
BITMAP
70
90
90
72
0C
30
4E
08
08
0E
ENDCHAR
STARTCHAR $0026
ENCODING 38
SWIDTH 800 0
DWIDTH 12 0
BBX 10 10 1 1
BITMAP
3C00
6000
6000
3000
7BC0
6900
CF00
C600
E740
7F80
ENDCHAR
STARTCHAR $0027
ENCODING 39
SWIDTH 240 0
DWIDTH 4 0
BBX 2 4 1 6
BITMAP
40
40
C0
80
ENDCHAR
STARTCHAR $0028
ENCODING 40
SWIDTH 400 0
DWIDTH 6 0
BBX 3 11 1 -1
BITMAP
20
60
40
C0
C0
C0
C0
C0
40
60
20
ENDCHAR
STARTCHAR $0029
ENCODING 41
SWIDTH 400 0
DWIDTH 6 0
BBX 3 11 1 -1
BITMAP
80
40
60
60
20
20
20
20
60
60
C0
ENDCHAR
STARTCHAR $002A
ENCODING 42
SWIDTH 520 0
DWIDTH 8 0
BBX 5 4 1 7
BITMAP
20
B8
70
70
ENDCHAR
STARTCHAR $002B
ENCODING 43
SWIDTH 600 0
DWIDTH 9 0
BBX 6 6 1 1
BITMAP
30
30
FC
30
30
10
ENDCHAR
STARTCHAR $002C
ENCODING 44
SWIDTH 360 0
DWIDTH 6 0
BBX 2 3 1 -1
BITMAP
40
40
C0
ENDCHAR
STARTCHAR $002D
ENCODING 45
SWIDTH 600 0
DWIDTH 9 0
BBX 6 1 1 4
BITMAP
FC
ENDCHAR
STARTCHAR $002E
ENCODING 46
SWIDTH 320 0
DWIDTH 5 0
BBX 2 2 1 0
BITMAP
C0
40
ENDCHAR
STARTCHAR $002F
ENCODING 47
SWIDTH 640 0
DWIDTH 9 0
BBX 7 10 1 1
BITMAP
06
06
0C
08
18
10
20
60
40
80
ENDCHAR
STARTCHAR $0030
ENCODING 48
SWIDTH 600 0
DWIDTH 9 0
BBX 7 7 1 1
BITMAP
38
66
C6
C2
C2
46
7C
ENDCHAR
STARTCHAR $0031
ENCODING 49
SWIDTH 400 0
DWIDTH 6 0
BBX 4 7 1 1
BITMAP
30
F0
70
30
30
30
30
ENDCHAR
STARTCHAR $0032
ENCODING 50
SWIDTH 520 0
DWIDTH 8 0
BBX 6 7 1 1
BITMAP
78
4C
0C
38
60
C0
FC
ENDCHAR
STARTCHAR $0033
ENCODING 51
SWIDTH 520 0
DWIDTH 8 0
BBX 6 9 1 -1
BITMAP
7C
18
30
38
0C
0C
0C
38
E0
ENDCHAR
STARTCHAR $0034
ENCODING 52
SWIDTH 600 0
DWIDTH 9 0
BBX 7 9 1 -2
BITMAP
18
18
30
30
64
6C
FE
0C
04
ENDCHAR
STARTCHAR $0035
ENCODING 53
SWIDTH 560 0
DWIDTH 8 0
BBX 6 9 1 -1
BITMAP
7C
60
60
78
0C
0C
0C
38
E0
ENDCHAR
STARTCHAR $0036
ENCODING 54
SWIDTH 560 0
DWIDTH 8 0
BBX 7 9 1 0
BITMAP
1C
70
60
78
EC
C6
C6
66
78
ENDCHAR
STARTCHAR $0037
ENCODING 55
SWIDTH 520 0
DWIDTH 8 0
BBX 6 9 1 -2
BITMAP
FC
0C
18
38
30
30
30
20
20
ENDCHAR
STARTCHAR $0038
ENCODING 56
SWIDTH 600 0
DWIDTH 9 0
BBX 7 9 1 0
BITMAP
38
6C
46
6C
7C
CE
C6
C6
78
ENDCHAR
STARTCHAR $0039
ENCODING 57
SWIDTH 560 0
DWIDTH 8 0
BBX 7 9 1 -2
BITMAP
78
EE
C6
C6
C6
7E
0C
1C
70
ENDCHAR
STARTCHAR $003A
ENCODING 58
SWIDTH 320 0
DWIDTH 5 0
BBX 2 6 1 1
BITMAP
C0
40
00
00
00
C0
ENDCHAR
STARTCHAR $003B
ENCODING 59
SWIDTH 360 0
DWIDTH 6 0
BBX 2 8 2 -2
BITMAP
C0
C0
00
00
80
C0
C0
80
ENDCHAR
STARTCHAR $003C
ENCODING 60
SWIDTH 560 0
DWIDTH 8 0
BBX 7 7 1 1
BITMAP
06
1C
78
E0
70
1C
06
ENDCHAR
STARTCHAR $003D
ENCODING 61
SWIDTH 600 0
DWIDTH 9 0
BBX 6 3 1 3
BITMAP
FC
00
FC
ENDCHAR
STARTCHAR $003E
ENCODING 62
SWIDTH 560 0
DWIDTH 8 0
BBX 6 7 1 1
BITMAP
80
60
30
0C
18
60
C0
ENDCHAR
STARTCHAR $003F
ENCODING 63
SWIDTH 600 0
DWIDTH 9 0
BBX 6 10 1 1
BITMAP
F8
9C
0C
1C
78
60
60
00
40
60
ENDCHAR
STARTCHAR $0040
ENCODING 64
SWIDTH 840 0
DWIDTH 12 0
BBX 11 10 1 -1
BITMAP
0F00
3180
46C0
4A40
D260
D260
5E40
4F80
7000
1C00
ENDCHAR
STARTCHAR $0041
ENCODING 65
SWIDTH 720 0
DWIDTH 11 0
BBX 9 10 1 1
BITMAP
1C00
1C00
3C00
3600
3600
7600
7F00
4300
C100
C180
ENDCHAR
STARTCHAR $0042
ENCODING 66
SWIDTH 640 0
DWIDTH 9 0
BBX 7 10 1 1
BITMAP
FC
C6
C6
C6
FC
C6
C2
C2
C6
FC
ENDCHAR
STARTCHAR $0043
ENCODING 67
SWIDTH 640 0
DWIDTH 9 0
BBX 7 10 1 1
BITMAP
3E
60
60
40
C0
C0
C0
60
60
3E
ENDCHAR
STARTCHAR $0044
ENCODING 68
SWIDTH 680 0
DWIDTH 10 0
BBX 8 10 1 1
BITMAP
F8
C6
C6
C3
C3
C3
C3
C2
C6
FC
ENDCHAR
STARTCHAR $0045
ENCODING 69
SWIDTH 600 0
DWIDTH 9 0
BBX 6 10 1 1
BITMAP
FC
C0
C0
C0
F8
C0
C0
C0
C0
FC
ENDCHAR
STARTCHAR $0046
ENCODING 70
SWIDTH 560 0
DWIDTH 8 0
BBX 6 10 1 1
BITMAP
FC
C0
C0
C0
F8
C0
C0
C0
C0
C0
ENDCHAR
STARTCHAR $0047
ENCODING 71
SWIDTH 720 0
DWIDTH 11 0
BBX 8 10 1 1
BITMAP
3E
61
60
40
C0
C7
C1
61
61
3F
ENDCHAR
STARTCHAR $0048
ENCODING 72
SWIDTH 760 0
DWIDTH 11 0
BBX 8 10 1 1
BITMAP
C3
C3
C3
C3
FF
C3
C3
C3
C3
C3
ENDCHAR
STARTCHAR $0049
ENCODING 73
SWIDTH 320 0
DWIDTH 5 0
BBX 2 10 1 1
BITMAP
C0
C0
C0
C0
C0
C0
C0
C0
C0
C0
ENDCHAR
STARTCHAR $004A
ENCODING 74
SWIDTH 400 0
DWIDTH 6 0
BBX 3 11 1 -1
BITMAP
60
60
60
60
60
60
60
60
60
60
C0
ENDCHAR
STARTCHAR $004B
ENCODING 75
SWIDTH 640 0
DWIDTH 9 0
BBX 7 10 1 1
BITMAP
C4
CE
DC
D8
F0
F0
F8
DC
CC
C6
ENDCHAR
STARTCHAR $004C
ENCODING 76
SWIDTH 560 0
DWIDTH 8 0
BBX 6 10 1 1
BITMAP
C0
C0
C0
C0
C0
C0
C0
C0
C0
FC
ENDCHAR
STARTCHAR $004D
ENCODING 77
SWIDTH 920 0
DWIDTH 13 0
BBX 12 10 1 1
BITMAP
70E0
70E0
71E0
71E0
5960
5920
CF20
CF20
CE30
CE30
ENDCHAR
STARTCHAR $004E
ENCODING 78
SWIDTH 760 0
DWIDTH 11 0
BBX 8 10 1 1
BITMAP
C1
E1
F1
F1
D9
C9
CD
C7
C7
C3
ENDCHAR
STARTCHAR $004F
ENCODING 79
SWIDTH 760 0
DWIDTH 11 0
BBX 9 10 1 1
BITMAP
3E00
6300
6180
4180
C180
C180
4180
6180
6300
3E00
ENDCHAR
STARTCHAR $0050
ENCODING 80
SWIDTH 640 0
DWIDTH 9 0
BBX 7 10 1 1
BITMAP
FC
C6
C6
C6
C6
FC
C0
C0
C0
C0
ENDCHAR
STARTCHAR $0051
ENCODING 81
SWIDTH 760 0
DWIDTH 11 0
BBX 9 12 1 -1
BITMAP
3E00
6300
6180
4180
C180
C180
4180
6180
6300
3E00
0600
0380
ENDCHAR
STARTCHAR $0052
ENCODING 82
SWIDTH 640 0
DWIDTH 9 0
BBX 7 10 1 1
BITMAP
F8
CE
C6
C6
FC
F8
D8
CC
C6
C6
ENDCHAR
STARTCHAR $0053
ENCODING 83
SWIDTH 640 0
DWIDTH 9 0
BBX 7 10 1 1
BITMAP
3C
E0
C0
E0
7C
1E
06
02
06
FC
ENDCHAR
STARTCHAR $0054
ENCODING 84
SWIDTH 640 0
DWIDTH 9 0
BBX 8 10 1 1
BITMAP
FF
18
18
18
18
18
18
18
18
18
ENDCHAR
STARTCHAR $0055
ENCODING 85
SWIDTH 760 0
DWIDTH 11 0
BBX 8 10 1 1
BITMAP
C3
C3
C3
C3
C3
C3
C3
C3
66
3C
ENDCHAR
STARTCHAR $0056
ENCODING 86
SWIDTH 720 0
DWIDTH 11 0
BBX 8 10 1 1
BITMAP
C3
C3
42
66
66
24
3C
3C
1C
18
ENDCHAR
STARTCHAR $0057
ENCODING 87
SWIDTH 920 0
DWIDTH 13 0
BBX 12 10 1 1
BITMAP
CE30
CE30
CF20
CF20
5B20
5960
79E0
71E0
70E0
70E0
ENDCHAR
STARTCHAR $0058
ENCODING 88
SWIDTH 720 0
DWIDTH 11 0
BBX 9 10 1 1
BITMAP
4380
6300
7600
3E00
1C00
1C00
1E00
3600
6300
E300
ENDCHAR
STARTCHAR $0059
ENCODING 89
SWIDTH 680 0
DWIDTH 10 0
BBX 8 10 1 1
BITMAP
C3
63
66
36
3C
1C
18
18
18
18
ENDCHAR
STARTCHAR $005A
ENCODING 90
SWIDTH 640 0
DWIDTH 9 0
BBX 7 10 1 1
BITMAP
FE
0C
1C
18
10
30
20
60
40
FE
ENDCHAR
STARTCHAR $005B
ENCODING 91
SWIDTH 400 0
DWIDTH 6 0
BBX 3 12 1 -1
BITMAP
E0
C0
C0
C0
C0
C0
C0
C0
C0
C0
E0
E0
ENDCHAR
STARTCHAR $005C
ENCODING 92
SWIDTH 600 0
DWIDTH 9 0
BBX 6 10 1 1
BITMAP
C0
40
40
20
20
30
10
18
08
0C
ENDCHAR
STARTCHAR $005D
ENCODING 93
SWIDTH 400 0
DWIDTH 6 0
BBX 3 12 1 -1
BITMAP
E0
60
60
60
60
60
60
60
60
60
60
E0
ENDCHAR
STARTCHAR $005E
ENCODING 94
SWIDTH 400 0
DWIDTH 6 0
BBX 5 4 1 4
BITMAP
60
70
D0
98
ENDCHAR
STARTCHAR $005F
ENCODING 95
SWIDTH 560 0
DWIDTH 8 0
BBX 6 1 1 1
BITMAP
FC
ENDCHAR
STARTCHAR $0060
ENCODING 96
SWIDTH 280 0
DWIDTH 4 0
BBX 2 3 0 9
BITMAP
C0
C0
40
ENDCHAR
STARTCHAR $0061
ENCODING 97
SWIDTH 560 0
DWIDTH 8 0
BBX 6 7 1 1
BITMAP
78
0C
0C
7C
CC
CC
7C
ENDCHAR
STARTCHAR $0062
ENCODING 98
SWIDTH 600 0
DWIDTH 9 0
BBX 7 10 1 1
BITMAP
C0
C0
C0
FC
EC
C6
C6
C6
CC
F8
ENDCHAR
STARTCHAR $0063
ENCODING 99
SWIDTH 520 0
DWIDTH 8 0
BBX 6 7 1 1
BITMAP
3C
60
C0
C0
C0
C0
7C
ENDCHAR
STARTCHAR $0064
ENCODING 100
SWIDTH 600 0
DWIDTH 9 0
BBX 7 10 1 1
BITMAP
06
06
06
7E
66
C6
C6
C6
CE
76
ENDCHAR
STARTCHAR $0065
ENCODING 101
SWIDTH 600 0
DWIDTH 9 0
BBX 7 7 1 1
BITMAP
38
66
C6
FE
C0
40
7C
ENDCHAR
STARTCHAR $0066
ENCODING 102
SWIDTH 480 0
DWIDTH 7 0
BBX 6 10 1 1
BITMAP
3C
20
60
FC
60
60
60
60
60
FC
ENDCHAR
STARTCHAR $0067
ENCODING 103
SWIDTH 600 0
DWIDTH 9 0
BBX 7 10 1 -2
BITMAP
7E
CC
CC
CC
78
40
7C
06
06
7C
ENDCHAR
STARTCHAR $0068
ENCODING 104
SWIDTH 600 0
DWIDTH 9 0
BBX 7 10 1 1
BITMAP
C0
C0
C0
DC
EC
CE
CE
CE
CE
CE
ENDCHAR
STARTCHAR $0069
ENCODING 105
SWIDTH 320 0
DWIDTH 5 0
BBX 2 11 1 0
BITMAP
C0
C0
00
C0
C0
C0
C0
C0
C0
C0
C0
ENDCHAR
STARTCHAR $006A
ENCODING 106
SWIDTH 360 0
DWIDTH 6 0
BBX 3 13 1 -2
BITMAP
40
60
00
60
60
60
60
60
60
60
60
C0
C0
ENDCHAR
STARTCHAR $006B
ENCODING 107
SWIDTH 560 0
DWIDTH 8 0
BBX 6 10 1 1
BITMAP
C0
C0
C0
C8
D8
F0
F0
F0
D8
CC
ENDCHAR
STARTCHAR $006C
ENCODING 108
SWIDTH 240 0
DWIDTH 4 0
BBX 2 10 1 1
BITMAP
C0
C0
C0
C0
C0
C0
C0
C0
C0
C0
ENDCHAR
STARTCHAR $006D
ENCODING 109
SWIDTH 920 0
DWIDTH 13 0
BBX 11 7 1 1
BITMAP
DDC0
EE60
CE60
CE60
CE60
CE60
CE60
ENDCHAR
STARTCHAR $006E
ENCODING 110
SWIDTH 600 0
DWIDTH 9 0
BBX 7 7 1 1
BITMAP
DC
EC
CE
CE
CE
CE
CE
ENDCHAR
STARTCHAR $006F
ENCODING 111
SWIDTH 600 0
DWIDTH 9 0
BBX 7 7 1 1
BITMAP
38
66
C6
C6
C6
46
7C
ENDCHAR
STARTCHAR $0070
ENCODING 112
SWIDTH 600 0
DWIDTH 9 0
BBX 7 10 1 -2
BITMAP
D8
EC
CE
CE
CE
CC
F8
C0
C0
C0
ENDCHAR
STARTCHAR $0071
ENCODING 113
SWIDTH 600 0
DWIDTH 9 0
BBX 7 10 1 -2
BITMAP
3E
66
C6
C6
C6
CE
76
06
06
06
ENDCHAR
STARTCHAR $0072
ENCODING 114
SWIDTH 480 0
DWIDTH 7 0
BBX 5 7 1 1
BITMAP
D8
F0
C0
C0
C0
C0
C0
ENDCHAR
STARTCHAR $0073
ENCODING 115
SWIDTH 520 0
DWIDTH 8 0
BBX 6 7 1 1
BITMAP
78
C0
E0
78
0C
0C
F8
ENDCHAR
STARTCHAR $0074
ENCODING 116
SWIDTH 480 0
DWIDTH 7 0
BBX 5 9 1 0
BITMAP
60
60
F8
60
60
60
60
60
38
ENDCHAR
STARTCHAR $0075
ENCODING 117
SWIDTH 600 0
DWIDTH 9 0
BBX 6 7 1 1
BITMAP
CC
CC
CC
CC
CC
CC
7C
ENDCHAR
STARTCHAR $0076
ENCODING 118
SWIDTH 560 0
DWIDTH 8 0
BBX 7 7 1 1
BITMAP
CE
CC
4C
6C
78
38
38
ENDCHAR
STARTCHAR $0077
ENCODING 119
SWIDTH 760 0
DWIDTH 11 0
BBX 10 7 1 1
BITMAP
CCC0
CCC0
CCC0
4C80
6E80
7F80
7700
ENDCHAR
STARTCHAR $0078
ENCODING 120
SWIDTH 600 0
DWIDTH 9 0
BBX 7 7 1 1
BITMAP
46
6C
3C
38
38
6C
E6
ENDCHAR
STARTCHAR $0079
ENCODING 121
SWIDTH 640 0
DWIDTH 9 0
BBX 7 10 1 -2
BITMAP
CE
CE
CE
CE
CE
CE
7E
0E
0C
78
ENDCHAR
STARTCHAR $007A
ENCODING 122
SWIDTH 520 0
DWIDTH 8 0
BBX 6 7 1 1
BITMAP
FC
18
18
30
70
60
7C
ENDCHAR
STARTCHAR $007B
ENCODING 123
SWIDTH 400 0
DWIDTH 6 0
BBX 4 12 1 -1
BITMAP
70
60
40
40
40
C0
C0
40
40
40
60
30
ENDCHAR
STARTCHAR $007C
ENCODING 124
SWIDTH 320 0
DWIDTH 5 0
BBX 2 12 2 -1
BITMAP
C0
C0
C0
C0
C0
C0
C0
C0
C0
C0
C0
C0
ENDCHAR
STARTCHAR $007D
ENCODING 125
SWIDTH 400 0
DWIDTH 6 0
BBX 3 12 1 -1
BITMAP
C0
60
60
60
60
20
20
60
60
60
60
C0
ENDCHAR
STARTCHAR $007E
ENCODING 126
SWIDTH 560 0
DWIDTH 8 0
BBX 6 3 1 3
BITMAP
F4
FC
80
ENDCHAR
STARTCHAR $00A0
ENCODING 160
SWIDTH 280 0
DWIDTH 4 0
BBX 0 0 0 0
BITMAP
ENDCHAR
STARTCHAR $00A1
ENCODING 161
SWIDTH 320 0
DWIDTH 5 0
BBX 2 10 1 -2
BITMAP
C0
80
00
C0
C0
C0
C0
C0
C0
C0
ENDCHAR
STARTCHAR $00A2
ENCODING 162
SWIDTH 560 0
DWIDTH 8 0
BBX 6 11 1 -2
BITMAP
0C
08
7C
58
D0
D0
F0
F0
7C
20
20
ENDCHAR
STARTCHAR $00A3
ENCODING 163
SWIDTH 560 0
DWIDTH 8 0
BBX 7 10 1 1
BITMAP
3C
20
20
20
FC
20
20
20
20
3E
ENDCHAR
STARTCHAR $00A5
ENCODING 165
SWIDTH 680 0
DWIDTH 10 0
BBX 8 10 1 1
BITMAP
C3
63
26
36
3E
3E
18
3E
18
18
ENDCHAR
STARTCHAR $00A6
ENCODING 166
SWIDTH 320 0
DWIDTH 5 0
BBX 2 12 2 -1
BITMAP
C0
C0
C0
C0
00
00
00
80
C0
C0
C0
C0
ENDCHAR
STARTCHAR $00A7
ENCODING 167
SWIDTH 520 0
DWIDTH 8 0
BBX 6 10 1 1
BITMAP
78
C0
E0
78
CC
6C
3C
0C
0C
F8
ENDCHAR
STARTCHAR $00A8
ENCODING 168
SWIDTH 480 0
DWIDTH 7 0
BBX 5 2 1 8
BITMAP
C8
48
ENDCHAR
STARTCHAR $00A9
ENCODING 169
SWIDTH 800 0
DWIDTH 12 0
BBX 10 10 1 -1
BITMAP
1E00
3180
4E80
58C0
9040
9040
D8C0
4E80
7180
1E00
ENDCHAR
STARTCHAR $00AB
ENCODING 171
SWIDTH 680 0
DWIDTH 10 0
BBX 6 6 2 1
BITMAP
24
6C
D8
98
C8
64
ENDCHAR
STARTCHAR $00AC
ENCODING 172
SWIDTH 640 0
DWIDTH 9 0
BBX 6 3 1 2
BITMAP
FC
04
04
ENDCHAR
STARTCHAR $00AD
ENCODING 173
SWIDTH 600 0
DWIDTH 9 0
BBX 6 1 1 4
BITMAP
FC
ENDCHAR
STARTCHAR $00AE
ENCODING 174
SWIDTH 800 0
DWIDTH 12 0
BBX 10 10 1 -1
BITMAP
1E00
3180
4E80
5EC0
9E40
9C40
D6C0
5280
7180
1E00
ENDCHAR
STARTCHAR $00AF
ENCODING 175
SWIDTH 320 0
DWIDTH 5 0
BBX 4 1 0 9
BITMAP
F0
ENDCHAR
STARTCHAR $00B0
ENCODING 176
SWIDTH 400 0
DWIDTH 6 0
BBX 4 4 1 7
BITMAP
70
D0
90
F0
ENDCHAR
STARTCHAR $00B1
ENCODING 177
SWIDTH 600 0
DWIDTH 9 0
BBX 6 7 1 1
BITMAP
30
30
FC
30
30
10
FC
ENDCHAR
STARTCHAR $00B4
ENCODING 180
SWIDTH 280 0
DWIDTH 4 0
BBX 2 3 2 9
BITMAP
C0
C0
C0
ENDCHAR
STARTCHAR $00B6
ENCODING 182
SWIDTH 280 0
DWIDTH 4 0
BBX 0 0 0 0
BITMAP
ENDCHAR
STARTCHAR $00B7
ENCODING 183
SWIDTH 280 0
DWIDTH 4 0
BBX 2 2 1 3
BITMAP
C0
80
ENDCHAR
STARTCHAR $00B8
ENCODING 184
SWIDTH 360 0
DWIDTH 6 0
BBX 3 3 1 -3
BITMAP
40
60
C0
ENDCHAR
STARTCHAR $00BB
ENCODING 187
SWIDTH 680 0
DWIDTH 10 0
BBX 7 6 1 1
BITMAP
80
48
24
22
64
C8
ENDCHAR
STARTCHAR $00BF
ENCODING 191
SWIDTH 520 0
DWIDTH 8 0
BBX 6 10 1 -2
BITMAP
18
00
00
18
18
78
E0
C0
C0
7C
ENDCHAR
STARTCHAR $00C0
ENCODING 192
SWIDTH 720 0
DWIDTH 11 0
BBX 9 14 1 0
BITMAP
1000
1000
1800
0000
1C00
1C00
3C00
3600
3600
7600
7F00
4300
C100
C180
ENDCHAR
STARTCHAR $00C1
ENCODING 193
SWIDTH 720 0
DWIDTH 11 0
BBX 9 14 1 0
BITMAP
0C00
0C00
0C00
0000
1C00
1C00
3C00
3600
3600
7600
7F00
4300
C100
C180
ENDCHAR
STARTCHAR $00C2
ENCODING 194
SWIDTH 720 0
DWIDTH 11 0
BBX 9 13 1 0
BITMAP
0800
3C00
0000
1C00
1C00
3C00
3600
3600
7E00
7F00
4300
C180
C180
ENDCHAR
STARTCHAR $00C3
ENCODING 195
SWIDTH 720 0
DWIDTH 11 0
BBX 9 12 1 1
BITMAP
1C00
2400
0800
1C00
1C00
3600
3600
2600
7F00
6300
C100
C180
ENDCHAR
STARTCHAR $00C4
ENCODING 196
SWIDTH 720 0
DWIDTH 11 0
BBX 9 12 1 1
BITMAP
3600
2200
0800
1C00
1C00
3600
3600
2600
7F00
6300
C100
C180
ENDCHAR
STARTCHAR $00C5
ENCODING 197
SWIDTH 720 0
DWIDTH 11 0
BBX 9 13 1 0
BITMAP
1800
1000
0000
1C00
1C00
3C00
3600
3600
7E00
7F00
4300
C180
C180
ENDCHAR
STARTCHAR $00C6
ENCODING 198
SWIDTH 920 0
DWIDTH 13 0
BBX 12 10 0 1
BITMAP
07F0
0700
0F00
0F00
1BE0
1B00
3F00
7300
6300
E3F0
ENDCHAR
STARTCHAR $00C7
ENCODING 199
SWIDTH 640 0
DWIDTH 9 0
BBX 7 13 1 -3
BITMAP
3E
60
60
40
C0
C0
C0
60
60
3E
08
08
1C
ENDCHAR
STARTCHAR $00C8
ENCODING 200
SWIDTH 600 0
DWIDTH 9 0
BBX 6 14 1 0
BITMAP
60
20
20
00
FC
C0
C0
C0
F8
C0
C0
C0
C0
FC
ENDCHAR
STARTCHAR $00C9
ENCODING 201
SWIDTH 600 0
DWIDTH 9 0
BBX 6 14 1 0
BITMAP
18
18
10
00
FC
C0
C0
C0
F8
C0
C0
C0
C0
FC
ENDCHAR
STARTCHAR $00CA
ENCODING 202
SWIDTH 600 0
DWIDTH 9 0
BBX 6 13 1 0
BITMAP
30
78
00
FC
C0
C0
C0
F8
C0
C0
C0
C0
FC
ENDCHAR
STARTCHAR $00CB
ENCODING 203
SWIDTH 600 0
DWIDTH 9 0
BBX 6 12 1 1
BITMAP
4C
48
FC
E0
C0
C0
F8
C0
C0
C0
C0
FC
ENDCHAR
STARTCHAR $00CC
ENCODING 204
SWIDTH 320 0
DWIDTH 5 0
BBX 3 14 1 0
BITMAP
C0
C0
40
00
60
60
60
60
60
60
60
60
60
60
ENDCHAR
STARTCHAR $00CD
ENCODING 205
SWIDTH 320 0
DWIDTH 5 0
BBX 3 14 1 0
BITMAP
60
60
40
00
C0
C0
C0
C0
C0
C0
C0
C0
C0
C0
ENDCHAR
STARTCHAR $00CE
ENCODING 206
SWIDTH 320 0
DWIDTH 5 0
BBX 4 13 1 0
BITMAP
40
F0
00
60
60
60
60
60
60
60
60
60
60
ENDCHAR
STARTCHAR $00CF
ENCODING 207
SWIDTH 320 0
DWIDTH 5 0
BBX 5 12 0 1
BITMAP
D8
80
60
60
60
60
60
60
60
60
60
60
ENDCHAR
STARTCHAR $00D0
ENCODING 208
SWIDTH 680 0
DWIDTH 10 0
BBX 10 10 -1 1
BITMAP
3E00
3380
3180
31C0
F8C0
F8C0
31C0
3180
3380
3E00
ENDCHAR
STARTCHAR $00D1
ENCODING 209
SWIDTH 760 0
DWIDTH 11 0
BBX 8 12 1 1
BITMAP
1C
00
C1
E1
F1
F1
D9
D9
CD
C7
C7
C3
ENDCHAR
STARTCHAR $00D2
ENCODING 210
SWIDTH 760 0
DWIDTH 11 0
BBX 9 14 1 0
BITMAP
1800
1800
1800
0000
3E00
6300
6180
4180
C180
C180
4180
6180
6300
3E00
ENDCHAR
STARTCHAR $00D3
ENCODING 211
SWIDTH 760 0
DWIDTH 11 0
BBX 9 14 1 0
BITMAP
0C00
0400
0C00
0000
3E00
6300
6180
4180
C180
C180
4180
6180
6300
3E00
ENDCHAR
STARTCHAR $00D4
ENCODING 212
SWIDTH 760 0
DWIDTH 11 0
BBX 9 13 1 0
BITMAP
0800
1E00
0000
3F00
6300
6180
4180
C180
C180
4180
6180
6300
1E00
ENDCHAR
STARTCHAR $00D5
ENCODING 213
SWIDTH 760 0
DWIDTH 11 0
BBX 9 12 1 1
BITMAP
1A00
0400
1E00
7300
6180
4180
C180
C180
4180
6180
6100
3F00
ENDCHAR
STARTCHAR $00D6
ENCODING 214
SWIDTH 760 0
DWIDTH 11 0
BBX 9 12 1 1
BITMAP
3200
3200
1E00
7300
6180
4180
C180
C180
4180
6180
6100
3F00
ENDCHAR
STARTCHAR $00D7
ENCODING 215
SWIDTH 520 0
DWIDTH 8 0
BBX 5 5 1 2
BITMAP
88
78
30
70
D8
ENDCHAR
STARTCHAR $00D8
ENCODING 216
SWIDTH 760 0
DWIDTH 11 0
BBX 9 10 1 1
BITMAP
3F00
6300
6380
4580
CD80
C980
D980
7180
6300
7E00
ENDCHAR
STARTCHAR $00D9
ENCODING 217
SWIDTH 760 0
DWIDTH 11 0
BBX 8 14 1 0
BITMAP
10
30
10
00
C3
C3
C3
C3
C3
C3
C3
C3
66
3C
ENDCHAR
STARTCHAR $00DA
ENCODING 218
SWIDTH 760 0
DWIDTH 11 0
BBX 8 14 1 0
BITMAP
0C
0C
08
00
C3
C3
C3
C3
C3
C3
C3
C3
66
3C
ENDCHAR
STARTCHAR $00DB
ENCODING 219
SWIDTH 760 0
DWIDTH 11 0
BBX 8 13 1 0
BITMAP
08
3C
00
C3
C3
C3
C3
C3
C3
C3
C3
66
3C
ENDCHAR
STARTCHAR $00DC
ENCODING 220
SWIDTH 760 0
DWIDTH 11 0
BBX 8 12 1 1
BITMAP
26
24
C3
C3
C3
C3
C3
C3
C3
C3
47
7E
ENDCHAR
STARTCHAR $00DD
ENCODING 221
SWIDTH 680 0
DWIDTH 10 0
BBX 8 14 1 0
BITMAP
0C
0C
08
00
C3
63
66
36
3C
1C
18
18
18
18
ENDCHAR
STARTCHAR $00DE
ENCODING 222
SWIDTH 640 0
DWIDTH 9 0
BBX 7 10 1 1
BITMAP
C0
C0
FC
C6
C6
C6
CE
F8
C0
C0
ENDCHAR
STARTCHAR $00DF
ENCODING 223
SWIDTH 640 0
DWIDTH 9 0
BBX 7 11 1 0
BITMAP
78
EC
C6
CC
CC
DC
C6
C6
C6
CC
D8
ENDCHAR
STARTCHAR $00E0
ENCODING 224
SWIDTH 560 0
DWIDTH 8 0
BBX 6 12 1 0
BITMAP
30
20
30
00
38
7C
0C
3C
EC
CC
CC
64
ENDCHAR
STARTCHAR $00E1
ENCODING 225
SWIDTH 560 0
DWIDTH 8 0
BBX 6 12 1 0
BITMAP
18
18
18
00
38
7C
0C
3C
EC
CC
CC
64
ENDCHAR
STARTCHAR $00E2
ENCODING 226
SWIDTH 560 0
DWIDTH 8 0
BBX 6 11 1 0
BITMAP
10
3C
00
38
5C
0C
3C
EC
CC
DC
64
ENDCHAR
STARTCHAR $00E3
ENCODING 227
SWIDTH 560 0
DWIDTH 8 0
BBX 6 10 1 1
BITMAP
34
48
00
78
0C
0C
FC
CC
CC
7C
ENDCHAR
STARTCHAR $00E4
ENCODING 228
SWIDTH 560 0
DWIDTH 8 0
BBX 6 10 1 1
BITMAP
6C
60
00
78
0C
0C
FC
CC
CC
7C
ENDCHAR
STARTCHAR $00E5
ENCODING 229
SWIDTH 560 0
DWIDTH 8 0
BBX 6 11 1 0
BITMAP
18
08
00
38
5C
0C
3C
EC
CC
DC
64
ENDCHAR
STARTCHAR $00E6
ENCODING 230
SWIDTH 880 0
DWIDTH 13 0
BBX 11 7 1 1
BITMAP
7BC0
0E60
0C60
7FE0
CC00
CC00
77C0
ENDCHAR
STARTCHAR $00E7
ENCODING 231
SWIDTH 520 0
DWIDTH 8 0
BBX 6 10 1 -2
BITMAP
3C
60
C0
C0
C0
C0
7C
10
10
10
ENDCHAR
STARTCHAR $00E8
ENCODING 232
SWIDTH 600 0
DWIDTH 9 0
BBX 7 12 1 0
BITMAP
30
20
30
00
18
7C
C6
FE
C0
C0
64
3C
ENDCHAR
STARTCHAR $00E9
ENCODING 233
SWIDTH 600 0
DWIDTH 9 0
BBX 7 12 1 0
BITMAP
18
08
18
00
18
7C
C6
FE
C0
C0
64
3C
ENDCHAR
STARTCHAR $00EA
ENCODING 234
SWIDTH 600 0
DWIDTH 9 0
BBX 7 11 1 0
BITMAP
10
3C
00
38
6C
C6
FE
C0
C0
64
38
ENDCHAR
STARTCHAR $00EB
ENCODING 235
SWIDTH 600 0
DWIDTH 9 0
BBX 7 10 1 1
BITMAP
6C
64
00
7C
66
E6
FE
C0
60
7C
ENDCHAR
STARTCHAR $00EC
ENCODING 236
SWIDTH 320 0
DWIDTH 5 0
BBX 3 12 1 0
BITMAP
C0
C0
40
00
40
60
60
60
60
60
60
60
ENDCHAR
STARTCHAR $00ED
ENCODING 237
SWIDTH 320 0
DWIDTH 5 0
BBX 3 12 1 0
BITMAP
60
60
40
00
C0
C0
C0
C0
C0
C0
C0
C0
ENDCHAR
STARTCHAR $00EE
ENCODING 238
SWIDTH 320 0
DWIDTH 5 0
BBX 4 11 0 0
BITMAP
60
F0
00
20
20
20
20
20
20
20
20
ENDCHAR
STARTCHAR $00EF
ENCODING 239
SWIDTH 320 0
DWIDTH 5 0
BBX 5 10 -1 1
BITMAP
C8
48
00
30
30
30
30
30
30
30
ENDCHAR
STARTCHAR $00F0
ENCODING 240
SWIDTH 600 0
DWIDTH 9 0
BBX 7 11 1 1
BITMAP
04
78
3C
26
3E
7E
C6
C6
C6
66
7C
ENDCHAR
STARTCHAR $00F1
ENCODING 241
SWIDTH 600 0
DWIDTH 9 0
BBX 7 10 1 1
BITMAP
78
00
00
DC
EC
CE
CE
CE
CE
CE
ENDCHAR
STARTCHAR $00F2
ENCODING 242
SWIDTH 600 0
DWIDTH 9 0
BBX 7 12 1 0
BITMAP
30
20
30
00
18
7C
C6
C6
C6
C6
6E
38
ENDCHAR
STARTCHAR $00F3
ENCODING 243
SWIDTH 600 0
DWIDTH 9 0
BBX 7 12 1 0
BITMAP
18
08
18
00
18
7C
C6
C6
C6
C6
6E
38
ENDCHAR
STARTCHAR $00F4
ENCODING 244
SWIDTH 600 0
DWIDTH 9 0
BBX 7 11 1 0
BITMAP
10
3C
00
38
6C
C6
C6
C6
C6
6C
38
ENDCHAR
STARTCHAR $00F5
ENCODING 245
SWIDTH 600 0
DWIDTH 9 0
BBX 7 10 1 1
BITMAP
34
48
00
7C
66
C6
C6
C6
66
3C
ENDCHAR
STARTCHAR $00F6
ENCODING 246
SWIDTH 600 0
DWIDTH 9 0
BBX 7 10 1 1
BITMAP
6C
64
00
7C
66
C6
C6
C6
66
3C
ENDCHAR
STARTCHAR $00F7
ENCODING 247
SWIDTH 600 0
DWIDTH 9 0
BBX 6 7 1 1
BITMAP
30
30
00
FC
00
30
30
ENDCHAR
STARTCHAR $00F8
ENCODING 248
SWIDTH 600 0
DWIDTH 9 0
BBX 7 10 1 -1
BITMAP
02
3E
6E
CE
DE
F6
E6
7C
40
80
ENDCHAR
STARTCHAR $00F9
ENCODING 249
SWIDTH 600 0
DWIDTH 9 0
BBX 6 12 1 0
BITMAP
60
20
20
00
84
CC
CC
CC
CC
CC
DC
64
ENDCHAR
STARTCHAR $00FA
ENCODING 250
SWIDTH 600 0
DWIDTH 9 0
BBX 6 12 1 0
BITMAP
18
18
10
00
84
CC
CC
CC
CC
CC
DC
64
ENDCHAR
STARTCHAR $00FB
ENCODING 251
SWIDTH 600 0
DWIDTH 9 0
BBX 6 11 1 0
BITMAP
10
78
00
84
CC
CC
CC
CC
CC
FC
64
ENDCHAR
STARTCHAR $00FC
ENCODING 252
SWIDTH 600 0
DWIDTH 9 0
BBX 6 10 1 1
BITMAP
4C
48
00
CC
CC
CC
CC
CC
CC
7C
ENDCHAR
STARTCHAR $00FD
ENCODING 253
SWIDTH 640 0
DWIDTH 9 0
BBX 7 15 1 -3
BITMAP
18
18
10
00
84
CE
CE
CE
CE
CE
DE
6E
0C
7C
30
ENDCHAR
STARTCHAR $00FE
ENCODING 254
SWIDTH 600 0
DWIDTH 9 0
BBX 6 13 1 -3
BITMAP
C0
C0
C0
F8
CC
CC
CC
CC
CC
F8
C0
C0
C0
ENDCHAR
STARTCHAR $00FF
ENCODING 255
SWIDTH 640 0
DWIDTH 9 0
BBX 7 13 1 -3
BITMAP
4C
48
00
CE
CE
CE
CE
CE
CE
7E
0E
4C
78
ENDCHAR
STARTCHAR $0100
ENCODING 256
SWIDTH 720 0
DWIDTH 11 0
BBX 9 12 1 1
BITMAP
3E00
0000
0800
1C00
1C00
3600
3600
2600
7F00
6300
C100
C180
ENDCHAR
STARTCHAR $0101
ENCODING 257
SWIDTH 560 0
DWIDTH 8 0
BBX 6 10 1 0
BITMAP
3C
00
38
4C
0C
7C
EC
CC
FC
24
ENDCHAR
STARTCHAR $0102
ENCODING 258
SWIDTH 720 0
DWIDTH 11 0
BBX 9 13 1 1
BITMAP
2200
1C00
0000
0800
1C00
1C00
3600
3600
2600
7F00
6300
C100
C180
ENDCHAR
STARTCHAR $0103
ENCODING 259
SWIDTH 560 0
DWIDTH 8 0
BBX 6 11 1 0
BITMAP
44
38
00
38
5C
0C
3C
EC
CC
DC
64
ENDCHAR
STARTCHAR $0104
ENCODING 260
SWIDTH 720 0
DWIDTH 11 0
BBX 9 13 1 -3
BITMAP
1C00
1C00
3C00
3600
3600
7600
7F00
4300
C100
C180
0100
0100
0180
ENDCHAR
STARTCHAR $0105
ENCODING 261
SWIDTH 560 0
DWIDTH 8 0
BBX 6 10 1 -2
BITMAP
78
0C
0C
7C
CC
CC
7C
08
18
08
ENDCHAR
STARTCHAR $0106
ENCODING 262
SWIDTH 640 0
DWIDTH 9 0
BBX 7 14 1 0
BITMAP
0C
0C
0C
00
3E
60
60
C0
C0
C0
40
60
60
3E
ENDCHAR
STARTCHAR $0107
ENCODING 263
SWIDTH 520 0
DWIDTH 8 0
BBX 6 12 1 0
BITMAP
18
18
18
00
18
78
C0
C0
C0
C0
64
3C
ENDCHAR
STARTCHAR $010A
ENCODING 266
SWIDTH 640 0
DWIDTH 9 0
BBX 7 12 1 1
BITMAP
08
08
1E
72
60
40
C0
C0
C0
60
60
3E
ENDCHAR
STARTCHAR $010B
ENCODING 267
SWIDTH 520 0
DWIDTH 8 0
BBX 6 10 1 1
BITMAP
10
10
00
7C
60
C0
C0
C0
E0
7C
ENDCHAR
STARTCHAR $010C
ENCODING 268
SWIDTH 640 0
DWIDTH 9 0
BBX 7 13 1 0
BITMAP
16
08
00
3E
60
60
C0
C0
C0
40
60
60
1E
ENDCHAR
STARTCHAR $010D
ENCODING 269
SWIDTH 520 0
DWIDTH 8 0
BBX 6 11 1 0
BITMAP
68
30
00
38
60
C0
C0
C0
C0
64
38
ENDCHAR
STARTCHAR $010E
ENCODING 270
SWIDTH 680 0
DWIDTH 10 0
BBX 8 13 1 0
BITMAP
2C
30
00
FC
C6
C3
C3
C3
C3
C3
C6
CE
F8
ENDCHAR
STARTCHAR $010F
ENCODING 271
SWIDTH 600 0
DWIDTH 9 0
BBX 10 12 1 0
BITMAP
00C0
00C0
0680
0600
1E00
7E00
C600
C600
C600
C600
6E00
3600
ENDCHAR
STARTCHAR $0110
ENCODING 272
SWIDTH 680 0
DWIDTH 10 0
BBX 8 12 1 1
BITMAP
3C
00
F8
EE
C6
C3
C3
C3
C3
C3
C6
FC
ENDCHAR
STARTCHAR $0111
ENCODING 273
SWIDTH 600 0
DWIDTH 9 0
BBX 8 10 1 1
BITMAP
06
0F
06
7E
66
C6
C6
C6
CE
76
ENDCHAR
STARTCHAR $0112
ENCODING 274
SWIDTH 600 0
DWIDTH 9 0
BBX 6 12 1 1
BITMAP
78
00
FC
E0
C0
C0
F8
C0
C0
C0
C0
FC
ENDCHAR
STARTCHAR $0113
ENCODING 275
SWIDTH 600 0
DWIDTH 9 0
BBX 7 10 1 0
BITMAP
3C
00
38
6E
C6
FE
C0
C0
7C
38
ENDCHAR
STARTCHAR $0116
ENCODING 278
SWIDTH 600 0
DWIDTH 9 0
BBX 6 12 1 1
BITMAP
30
30
FC
E0
C0
C0
F8
C0
C0
C0
C0
FC
ENDCHAR
STARTCHAR $0117
ENCODING 279
SWIDTH 600 0
DWIDTH 9 0
BBX 7 10 1 1
BITMAP
10
10
00
7C
66
E6
FE
C0
60
7C
ENDCHAR
STARTCHAR $0118
ENCODING 280
SWIDTH 600 0
DWIDTH 9 0
BBX 6 13 1 -3
BITMAP
FC
C0
C0
C0
F8
C0
C0
C0
C0
FC
08
10
18
ENDCHAR
STARTCHAR $0119
ENCODING 281
SWIDTH 600 0
DWIDTH 9 0
BBX 7 10 1 -2
BITMAP
38
66
C6
FE
C0
40
7C
08
18
08
ENDCHAR
STARTCHAR $011A
ENCODING 282
SWIDTH 600 0
DWIDTH 9 0
BBX 6 13 1 0
BITMAP
68
30
00
FC
C0
C0
C0
F8
C0
C0
C0
C0
FC
ENDCHAR
STARTCHAR $011B
ENCODING 283
SWIDTH 600 0
DWIDTH 9 0
BBX 7 11 1 0
BITMAP
2C
30
00
38
6C
C6
FE
C0
C0
64
38
ENDCHAR
STARTCHAR $011E
ENCODING 286
SWIDTH 720 0
DWIDTH 11 0
BBX 8 13 1 1
BITMAP
22
1E
00
1C
73
60
40
C0
C7
C3
41
61
3F
ENDCHAR
STARTCHAR $011F
ENCODING 287
SWIDTH 600 0
DWIDTH 9 0
BBX 7 13 1 -2
BITMAP
48
78
00
3E
7E
CC
CC
7C
60
60
7E
06
7C
ENDCHAR
STARTCHAR $0120
ENCODING 288
SWIDTH 720 0
DWIDTH 11 0
BBX 8 12 1 1
BITMAP
0C
08
1E
73
60
40
C0
C7
C3
61
61
3F
ENDCHAR
STARTCHAR $0121
ENCODING 289
SWIDTH 600 0
DWIDTH 9 0
BBX 7 13 1 -3
BITMAP
30
30
00
7E
CC
CC
CC
78
40
7C
06
4E
78
ENDCHAR
STARTCHAR $0122
ENCODING 290
SWIDTH 720 0
DWIDTH 11 0
BBX 8 15 1 -4
BITMAP
3E
61
60
40
C0
C7
C1
61
61
3F
00
04
0C
0C
08
ENDCHAR
STARTCHAR $0123
ENCODING 291
SWIDTH 600 0
DWIDTH 9 0
BBX 7 15 1 -3
BITMAP
10
10
30
00
3E
7E
CC
CC
7C
78
60
7E
06
7C
38
ENDCHAR
STARTCHAR $0126
ENCODING 294
SWIDTH 840 0
DWIDTH 12 0
BBX 11 10 1 1
BITMAP
60C0
70C0
FFE0
60C0
7FC0
60C0
60C0
60C0
60C0
60C0
ENDCHAR
STARTCHAR $0127
ENCODING 295
SWIDTH 600 0
DWIDTH 9 0
BBX 8 10 0 1
BITMAP
60
F0
60
6E
73
63
63
63
63
63
ENDCHAR
STARTCHAR $012A
ENCODING 298
SWIDTH 320 0
DWIDTH 5 0
BBX 4 12 1 1
BITMAP
F0
00
60
60
60
60
60
60
60
60
60
60
ENDCHAR
STARTCHAR $012B
ENCODING 299
SWIDTH 320 0
DWIDTH 5 0
BBX 4 10 0 0
BITMAP
F0
00
60
60
60
60
60
60
60
20
ENDCHAR
STARTCHAR $012E
ENCODING 302
SWIDTH 320 0
DWIDTH 5 0
BBX 2 13 1 -3
BITMAP
C0
C0
C0
C0
C0
C0
C0
C0
C0
C0
C0
80
C0
ENDCHAR
STARTCHAR $012F
ENCODING 303
SWIDTH 320 0
DWIDTH 5 0
BBX 3 13 1 -2
BITMAP
40
40
00
60
60
60
60
60
60
60
60
00
80
ENDCHAR
STARTCHAR $0130
ENCODING 304
SWIDTH 320 0
DWIDTH 5 0
BBX 2 12 1 1
BITMAP
C0
40
C0
C0
C0
C0
C0
C0
C0
C0
C0
C0
ENDCHAR
STARTCHAR $0131
ENCODING 305
SWIDTH 320 0
DWIDTH 5 0
BBX 2 7 1 1
BITMAP
C0
C0
C0
C0
C0
C0
C0
ENDCHAR
STARTCHAR $0132
ENCODING 306
SWIDTH 600 0
DWIDTH 9 0
BBX 6 11 1 -1
BITMAP
CC
CC
CC
CC
CC
CC
CC
CC
CC
CC
18
ENDCHAR
STARTCHAR $0133
ENCODING 307
SWIDTH 560 0
DWIDTH 8 0
BBX 6 13 1 -2
BITMAP
CC
CC
00
44
4C
4C
4C
4C
4C
4C
4C
0C
08
ENDCHAR
STARTCHAR $0136
ENCODING 310
SWIDTH 640 0
DWIDTH 9 0
BBX 7 14 1 -3
BITMAP
C4
CE
DC
D8
F0
F0
F8
DC
CC
C6
00
10
10
30
ENDCHAR
STARTCHAR $0137
ENCODING 311
SWIDTH 560 0
DWIDTH 8 0
BBX 6 15 1 -4
BITMAP
C0
C0
C0
C8
D8
F0
F0
F0
D8
CC
00
30
30
30
20
ENDCHAR
STARTCHAR $0139
ENCODING 313
SWIDTH 560 0
DWIDTH 8 0
BBX 6 14 1 0
BITMAP
60
60
40
00
C0
C0
C0
C0
C0
C0
C0
C0
C0
FC
ENDCHAR
STARTCHAR $013A
ENCODING 314
SWIDTH 240 0
DWIDTH 4 0
BBX 3 14 1 0
BITMAP
60
60
40
00
C0
C0
C0
C0
C0
C0
C0
C0
C0
C0
ENDCHAR
STARTCHAR $013B
ENCODING 315
SWIDTH 560 0
DWIDTH 8 0
BBX 6 14 1 -3
BITMAP
C0
C0
C0
C0
C0
C0
C0
C0
C0
FC
00
30
30
30
ENDCHAR
STARTCHAR $013C
ENCODING 316
SWIDTH 240 0
DWIDTH 4 0
BBX 2 15 1 -4
BITMAP
C0
C0
C0
C0
C0
C0
C0
C0
C0
C0
00
C0
C0
C0
80
ENDCHAR
STARTCHAR $013D
ENCODING 317
SWIDTH 560 0
DWIDTH 8 0
BBX 6 12 1 0
BITMAP
0C
0C
CC
C0
C0
C0
C0
C0
C0
C0
E0
FC
ENDCHAR
STARTCHAR $013E
ENCODING 318
SWIDTH 240 0
DWIDTH 4 0
BBX 6 11 1 1
BITMAP
08
CC
D8
C0
C0
C0
C0
C0
C0
C0
C0
ENDCHAR
STARTCHAR $013F
ENCODING 319
SWIDTH 520 0
DWIDTH 8 0
BBX 6 10 1 1
BITMAP
C0
C0
C0
C0
D8
C8
C0
C0
C0
FC
ENDCHAR
STARTCHAR $0140
ENCODING 320
SWIDTH 240 0
DWIDTH 4 0
BBX 5 10 1 1
BITMAP
C0
C0
C0
C0
D8
C0
C0
C0
C0
C0
ENDCHAR
STARTCHAR $0141
ENCODING 321
SWIDTH 560 0
DWIDTH 8 0
BBX 7 10 0 1
BITMAP
20
20
20
3C
70
E0
A0
20
20
3E
ENDCHAR
STARTCHAR $0142
ENCODING 322
SWIDTH 320 0
DWIDTH 5 0
BBX 4 10 0 1
BITMAP
60
60
60
70
70
E0
60
60
60
60
ENDCHAR
STARTCHAR $0143
ENCODING 323
SWIDTH 760 0
DWIDTH 11 0
BBX 8 14 1 0
BITMAP
0C
0C
08
00
E1
E1
F1
F1
D9
C9
CD
C7
C7
C3
ENDCHAR
STARTCHAR $0144
ENCODING 324
SWIDTH 600 0
DWIDTH 9 0
BBX 7 12 1 0
BITMAP
18
18
10
00
88
FC
CE
CE
CE
CE
CE
C6
ENDCHAR
STARTCHAR $0145
ENCODING 325
SWIDTH 760 0
DWIDTH 11 0
BBX 8 14 1 -3
BITMAP
C1
E1
F1
F1
D9
C9
CD
C7
C7
C3
00
18
0C
18
ENDCHAR
STARTCHAR $0146
ENCODING 326
SWIDTH 600 0
DWIDTH 9 0
BBX 7 12 1 -4
BITMAP
DC
EC
CE
CE
CE
CE
CE
00
10
10
10
20
ENDCHAR
STARTCHAR $0147
ENCODING 327
SWIDTH 760 0
DWIDTH 11 0
BBX 8 13 1 0
BITMAP
34
18
00
E1
E1
F1
F1
D9
C9
CD
C7
C7
C3
ENDCHAR
STARTCHAR $0148
ENCODING 328
SWIDTH 600 0
DWIDTH 9 0
BBX 7 11 1 0
BITMAP
68
30
00
88
EC
CE
CE
CE
CE
CE
84
ENDCHAR
STARTCHAR $014A
ENCODING 330
SWIDTH 760 0
DWIDTH 11 0
BBX 8 13 1 -2
BITMAP
C1
E1
F1
F1
D9
CD
C5
C7
C3
C3
03
03
06
ENDCHAR
STARTCHAR $014B
ENCODING 331
SWIDTH 640 0
DWIDTH 9 0
BBX 7 10 1 -2
BITMAP
DC
EC
CE
CE
CE
CE
CE
0E
0C
08
ENDCHAR
STARTCHAR $014C
ENCODING 332
SWIDTH 760 0
DWIDTH 11 0
BBX 9 12 1 1
BITMAP
1E00
0000
1E00
7300
6180
4180
C180
C180
4180
6180
6100
3F00
ENDCHAR
STARTCHAR $014D
ENCODING 333
SWIDTH 600 0
DWIDTH 9 0
BBX 7 10 1 0
BITMAP
3C
00
38
6E
C6
C6
C6
C6
7C
18
ENDCHAR
STARTCHAR $0150
ENCODING 336
SWIDTH 760 0
DWIDTH 11 0
BBX 9 14 1 0
BITMAP
1B00
1B00
1A00
0000
3E00
6300
6180
4180
C180
C180
4180
6180
6300
3E00
ENDCHAR
STARTCHAR $0151
ENCODING 337
SWIDTH 600 0
DWIDTH 9 0
BBX 7 12 1 0
BITMAP
36
36
24
00
18
7C
C6
C6
C6
C6
6E
38
ENDCHAR
STARTCHAR $0152
ENCODING 338
SWIDTH 1040 0
DWIDTH 15 0
BBX 12 10 1 1
BITMAP
3FF0
6300
6100
4100
C1E0
C100
4100
6100
6300
3FF0
ENDCHAR
STARTCHAR $0153
ENCODING 339
SWIDTH 960 0
DWIDTH 14 0
BBX 12 7 1 1
BITMAP
39C0
6730
C630
C7F0
C600
4700
7FE0
ENDCHAR
STARTCHAR $0154
ENCODING 340
SWIDTH 640 0
DWIDTH 9 0
BBX 7 14 1 0
BITMAP
18
18
10
00
FC
CE
C6
C6
FC
F8
D8
CC
C6
C6
ENDCHAR
STARTCHAR $0155
ENCODING 341
SWIDTH 480 0
DWIDTH 7 0
BBX 5 12 1 0
BITMAP
30
30
20
00
08
F8
E0
C0
C0
C0
C0
C0
ENDCHAR
STARTCHAR $0156
ENCODING 342
SWIDTH 640 0
DWIDTH 9 0
BBX 7 15 1 -4
BITMAP
F8
CE
C6
C6
FC
F8
D8
CC
C6
C6
00
10
10
10
10
ENDCHAR
STARTCHAR $0157
ENCODING 343
SWIDTH 480 0
DWIDTH 7 0
BBX 5 12 1 -4
BITMAP
D8
F0
C0
C0
C0
C0
C0
00
00
40
C0
80
ENDCHAR
STARTCHAR $0158
ENCODING 344
SWIDTH 640 0
DWIDTH 9 0
BBX 7 13 1 0
BITMAP
68
30
00
FC
CE
C6
C6
FC
F8
D8
CC
C6
C6
ENDCHAR
STARTCHAR $0159
ENCODING 345
SWIDTH 480 0
DWIDTH 7 0
BBX 5 11 1 0
BITMAP
F0
60
00
08
F8
E0
C0
C0
C0
C0
C0
ENDCHAR
STARTCHAR $015A
ENCODING 346
SWIDTH 640 0
DWIDTH 9 0
BBX 7 14 1 0
BITMAP
08
08
18
00
3C
E0
C0
E0
7C
1E
06
06
06
7C
ENDCHAR
STARTCHAR $015B
ENCODING 347
SWIDTH 520 0
DWIDTH 8 0
BBX 6 12 1 0
BITMAP
18
18
10
00
38
F8
C0
70
1C
0C
8C
70
ENDCHAR
STARTCHAR $015E
ENCODING 350
SWIDTH 640 0
DWIDTH 9 0
BBX 7 13 1 -3
BITMAP
3C
E0
C0
E0
78
1E
06
02
06
FC
10
10
10
ENDCHAR
STARTCHAR $015F
ENCODING 351
SWIDTH 520 0
DWIDTH 8 0
BBX 6 10 1 -2
BITMAP
78
C0
E0
78
0C
0C
F8
30
30
30
ENDCHAR
STARTCHAR $0160
ENCODING 352
SWIDTH 640 0
DWIDTH 9 0
BBX 7 13 1 0
BITMAP
2C
18
00
7C
E0
C0
E0
7C
0E
06
06
0E
7C
ENDCHAR
STARTCHAR $0161
ENCODING 353
SWIDTH 520 0
DWIDTH 8 0
BBX 6 11 1 0
BITMAP
68
30
00
78
E0
C0
78
1C
0C
DC
70
ENDCHAR
STARTCHAR $0162
ENCODING 354
SWIDTH 640 0
DWIDTH 9 0
BBX 8 13 1 -3
BITMAP
FF
18
18
18
18
18
18
18
18
18
10
10
30
ENDCHAR
STARTCHAR $0163
ENCODING 355
SWIDTH 480 0
DWIDTH 7 0
BBX 5 12 1 -3
BITMAP
60
60
F8
60
60
60
60
60
38
10
10
30
ENDCHAR
STARTCHAR $0164
ENCODING 356
SWIDTH 640 0
DWIDTH 9 0
BBX 8 13 1 0
BITMAP
2C
18
00
FF
18
18
18
18
18
18
18
18
18
ENDCHAR
STARTCHAR $0165
ENCODING 357
SWIDTH 480 0
DWIDTH 7 0
BBX 9 12 1 0
BITMAP
0180
0100
0100
6000
F800
F800
6000
6000
6000
6000
7000
3800
ENDCHAR
STARTCHAR $0166
ENCODING 358
SWIDTH 640 0
DWIDTH 9 0
BBX 8 12 1 1
BITMAP
3C
00
FF
18
18
18
18
18
18
18
18
18
ENDCHAR
STARTCHAR $0167
ENCODING 359
SWIDTH 480 0
DWIDTH 7 0
BBX 5 9 1 0
BITMAP
60
60
F8
60
F0
60
60
60
38
ENDCHAR
STARTCHAR $016A
ENCODING 362
SWIDTH 760 0
DWIDTH 11 0
BBX 8 12 1 1
BITMAP
3C
00
C3
C3
C3
C3
C3
C3
C3
C3
47
7E
ENDCHAR
STARTCHAR $016B
ENCODING 363
SWIDTH 600 0
DWIDTH 9 0
BBX 6 10 1 0
BITMAP
78
00
C4
CC
CC
CC
CC
CC
FC
24
ENDCHAR
STARTCHAR $016E
ENCODING 366
SWIDTH 760 0
DWIDTH 11 0
BBX 8 13 1 0
BITMAP
18
18
00
C3
C3
C3
C3
C3
C3
C3
C3
66
3C
ENDCHAR
STARTCHAR $016F
ENCODING 367
SWIDTH 600 0
DWIDTH 9 0
BBX 6 11 1 0
BITMAP
30
30
00
84
CC
CC
CC
CC
CC
FC
64
ENDCHAR
STARTCHAR $0170
ENCODING 368
SWIDTH 760 0
DWIDTH 11 0
BBX 8 14 1 0
BITMAP
12
12
16
00
C3
C3
C3
C3
C3
C3
C3
C3
66
3C
ENDCHAR
STARTCHAR $0171
ENCODING 369
SWIDTH 600 0
DWIDTH 9 0
BBX 6 12 1 0
BITMAP
3C
2C
2C
00
84
CC
CC
CC
CC
CC
DC
64
ENDCHAR
STARTCHAR $0172
ENCODING 370
SWIDTH 760 0
DWIDTH 11 0
BBX 8 12 1 -1
BITMAP
C3
C3
C3
C3
C3
C3
C3
C3
66
3C
10
10
ENDCHAR
STARTCHAR $0173
ENCODING 371
SWIDTH 600 0
DWIDTH 9 0
BBX 7 10 1 -2
BITMAP
CC
CC
CC
CC
CC
CC
7E
0C
08
0C
ENDCHAR
STARTCHAR $0174
ENCODING 372
SWIDTH 920 0
DWIDTH 13 0
BBX 12 13 1 0
BITMAP
0400
0F00
0000
CE30
CE30
CF20
CB20
5920
5960
71E0
71E0
70E0
70E0
ENDCHAR
STARTCHAR $0175
ENCODING 373
SWIDTH 760 0
DWIDTH 11 0
BBX 10 11 1 0
BITMAP
0800
3C00
0000
8880
CCC0
CCC0
4CC0
6E80
7F80
7700
3300
ENDCHAR
STARTCHAR $0176
ENCODING 374
SWIDTH 680 0
DWIDTH 10 0
BBX 8 13 1 0
BITMAP
08
3C
00
C3
63
66
36
3C
1C
18
18
18
18
ENDCHAR
STARTCHAR $0177
ENCODING 375
SWIDTH 640 0
DWIDTH 9 0
BBX 7 13 1 -2
BITMAP
10
78
00
84
CE
CE
CE
CE
CE
FE
6E
0C
7C
ENDCHAR
STARTCHAR $0178
ENCODING 376
SWIDTH 680 0
DWIDTH 10 0
BBX 8 12 1 1
BITMAP
26
24
C3
63
67
36
3E
1C
1C
18
18
18
ENDCHAR
STARTCHAR $0179
ENCODING 377
SWIDTH 640 0
DWIDTH 9 0
BBX 7 14 1 0
BITMAP
18
18
18
00
FE
0C
1C
18
30
30
60
60
E0
FE
ENDCHAR
STARTCHAR $017A
ENCODING 378
SWIDTH 520 0
DWIDTH 8 0
BBX 6 12 1 0
BITMAP
18
18
18
00
7C
FC
18
38
30
60
60
7C
ENDCHAR
STARTCHAR $017B
ENCODING 379
SWIDTH 640 0
DWIDTH 9 0
BBX 7 12 1 1
BITMAP
10
10
FE
0C
0C
18
18
30
30
60
60
FE
ENDCHAR
STARTCHAR $017C
ENCODING 380
SWIDTH 520 0
DWIDTH 8 0
BBX 6 10 1 1
BITMAP
10
10
00
FC
18
18
30
70
60
7C
ENDCHAR
STARTCHAR $017D
ENCODING 381
SWIDTH 640 0
DWIDTH 9 0
BBX 7 13 1 0
BITMAP
68
30
00
FE
0C
1C
18
30
30
60
60
E0
FE
ENDCHAR
STARTCHAR $017E
ENCODING 382
SWIDTH 520 0
DWIDTH 8 0
BBX 5 11 2 0
BITMAP
D0
60
00
F8
38
30
60
60
C0
C0
F8
ENDCHAR
STARTCHAR $0218
ENCODING 536
SWIDTH 640 0
DWIDTH 9 0
BBX 7 15 1 -4
BITMAP
3C
E0
C0
E0
7C
1E
06
02
06
FC
00
18
18
10
10
ENDCHAR
STARTCHAR $0219
ENCODING 537
SWIDTH 520 0
DWIDTH 8 0
BBX 6 12 1 -4
BITMAP
78
C0
E0
78
0C
0C
F8
00
10
30
30
20
ENDCHAR
STARTCHAR $021A
ENCODING 538
SWIDTH 640 0
DWIDTH 9 0
BBX 8 15 1 -4
BITMAP
FF
18
18
18
18
18
18
18
18
18
00
18
18
10
10
ENDCHAR
STARTCHAR $021B
ENCODING 539
SWIDTH 480 0
DWIDTH 7 0
BBX 5 13 1 -3
BITMAP
60
60
F8
60
60
60
60
60
38
00
10
10
30
ENDCHAR
STARTCHAR $02C6
ENCODING 710
SWIDTH 400 0
DWIDTH 6 0
BBX 4 2 1 9
BITMAP
60
F0
ENDCHAR
STARTCHAR $02C7
ENCODING 711
SWIDTH 400 0
DWIDTH 6 0
BBX 4 2 1 9
BITMAP
D0
60
ENDCHAR
STARTCHAR $02D8
ENCODING 728
SWIDTH 360 0
DWIDTH 6 0
BBX 4 2 0 9
BITMAP
80
70
ENDCHAR
STARTCHAR $02D9
ENCODING 729
SWIDTH 280 0
DWIDTH 4 0
BBX 2 2 1 8
BITMAP
C0
80
ENDCHAR
STARTCHAR $02DA
ENCODING 730
SWIDTH 360 0
DWIDTH 6 0
BBX 3 2 1 9
BITMAP
40
E0
ENDCHAR
STARTCHAR $02DB
ENCODING 731
SWIDTH 280 0
DWIDTH 4 0
BBX 2 3 1 -3
BITMAP
80
80
C0
ENDCHAR
STARTCHAR $02DC
ENCODING 732
SWIDTH 440 0
DWIDTH 7 0
BBX 4 2 1 8
BITMAP
60
B0
ENDCHAR
STARTCHAR $02DD
ENCODING 733
SWIDTH 440 0
DWIDTH 7 0
BBX 5 3 1 9
BITMAP
58
58
D0
ENDCHAR
STARTCHAR $05B0
ENCODING 1456
SWIDTH 0 0
DWIDTH 0 0
BBX 1 1 2 -2
BITMAP
80
ENDCHAR
STARTCHAR $05B1
ENCODING 1457
SWIDTH 0 0
DWIDTH 0 0
BBX 5 3 1 -4
BITMAP
A8
00
08
ENDCHAR
STARTCHAR $05B2
ENCODING 1458
SWIDTH 0 0
DWIDTH 0 0
BBX 5 3 1 -4
BITMAP
E8
00
08
ENDCHAR
STARTCHAR $05B3
ENCODING 1459
SWIDTH 0 0
DWIDTH 0 0
BBX 5 3 1 -4
BITMAP
E8
40
48
ENDCHAR
STARTCHAR $05B4
ENCODING 1460
SWIDTH 0 0
DWIDTH 0 0
BBX 1 1 3 -1
BITMAP
80
ENDCHAR
STARTCHAR $05B5
ENCODING 1461
SWIDTH 0 0
DWIDTH 0 0
BBX 3 1 2 -1
BITMAP
A0
ENDCHAR
STARTCHAR $05B6
ENCODING 1462
SWIDTH 0 0
DWIDTH 0 0
BBX 3 3 2 -4
BITMAP
A0
00
40
ENDCHAR
STARTCHAR $05B7
ENCODING 1463
SWIDTH 0 0
DWIDTH 0 0
BBX 3 1 1 -1
BITMAP
E0
ENDCHAR
STARTCHAR $05B8
ENCODING 1464
SWIDTH 0 0
DWIDTH 0 0
BBX 3 3 1 -4
BITMAP
E0
40
40
ENDCHAR
STARTCHAR $05B9
ENCODING 1465
SWIDTH 0 0
DWIDTH 0 0
BBX 1 1 2 9
BITMAP
80
ENDCHAR
STARTCHAR $05BA
ENCODING 1466
SWIDTH 0 0
DWIDTH 0 0
BBX 1 1 2 9
BITMAP
80
ENDCHAR
STARTCHAR $05BB
ENCODING 1467
SWIDTH 0 0
DWIDTH 0 0
BBX 1 1 3 -1
BITMAP
80
ENDCHAR
STARTCHAR $05BC
ENCODING 1468
SWIDTH 0 0
DWIDTH 0 0
BBX 1 1 2 4
BITMAP
80
ENDCHAR
STARTCHAR $05BE
ENCODING 1470
SWIDTH 400 0
DWIDTH 6 0
BBX 4 1 1 7
BITMAP
F0
ENDCHAR
STARTCHAR $05C0
ENCODING 1472
SWIDTH 320 0
DWIDTH 5 0
BBX 2 12 2 -1
BITMAP
C0
C0
C0
C0
C0
C0
C0
C0
C0
C0
C0
C0
ENDCHAR
STARTCHAR $05C1
ENCODING 1473
SWIDTH 0 0
DWIDTH 0 0
BBX 1 1 2 9
BITMAP
80
ENDCHAR
STARTCHAR $05C2
ENCODING 1474
SWIDTH 0 0
DWIDTH 0 0
BBX 1 1 2 9
BITMAP
80
ENDCHAR
STARTCHAR $05C3
ENCODING 1475
SWIDTH 320 0
DWIDTH 5 0
BBX 2 6 1 1
BITMAP
C0
C0
00
00
40
C0
ENDCHAR
STARTCHAR $05C7
ENCODING 1479
SWIDTH 0 0
DWIDTH 0 0
BBX 3 3 1 -4
BITMAP
E0
40
40
ENDCHAR
STARTCHAR $05D0
ENCODING 1488
SWIDTH 600 0
DWIDTH 9 0
BBX 7 7 1 0
BITMAP
CC
C6
66
FC
D8
CC
C4
ENDCHAR
STARTCHAR $05D1
ENCODING 1489
SWIDTH 560 0
DWIDTH 8 0
BBX 7 7 1 2
BITMAP
78
0C
0C
0C
0C
0C
FE
ENDCHAR
STARTCHAR $05D2
ENCODING 1490
SWIDTH 440 0
DWIDTH 7 0
BBX 5 7 1 1
BITMAP
70
10
10
10
30
78
D8
ENDCHAR
STARTCHAR $05D3
ENCODING 1491
SWIDTH 560 0
DWIDTH 8 0
BBX 7 7 1 2
BITMAP
FE
1C
1C
1C
1C
1C
1C
ENDCHAR
STARTCHAR $05D4
ENCODING 1492
SWIDTH 600 0
DWIDTH 9 0
BBX 6 7 1 2
BITMAP
F8
0C
0C
8C
CC
CC
CC
ENDCHAR
STARTCHAR $05D5
ENCODING 1493
SWIDTH 360 0
DWIDTH 6 0
BBX 3 7 1 1
BITMAP
E0
60
60
60
60
60
60
ENDCHAR
STARTCHAR $05D6
ENCODING 1494
SWIDTH 440 0
DWIDTH 7 0
BBX 5 7 1 2
BITMAP
F8
30
30
30
30
30
30
ENDCHAR
STARTCHAR $05D7
ENCODING 1495
SWIDTH 640 0
DWIDTH 9 0
BBX 7 7 1 2
BITMAP
FC
66
62
62
62
62
62
ENDCHAR
STARTCHAR $05D8
ENCODING 1496
SWIDTH 640 0
DWIDTH 9 0
BBX 7 7 1 1
BITMAP
DC
D2
D2
C6
C6
4C
78
ENDCHAR
STARTCHAR $05D9
ENCODING 1497
SWIDTH 360 0
DWIDTH 6 0
BBX 3 4 1 4
BITMAP
E0
20
20
20
ENDCHAR
STARTCHAR $05DA
ENCODING 1498
SWIDTH 520 0
DWIDTH 8 0
BBX 6 10 1 -2
BITMAP
FC
0C
0C
0C
0C
0C
0C
0C
0C
08
ENDCHAR
STARTCHAR $05DB
ENCODING 1499
SWIDTH 520 0
DWIDTH 8 0
BBX 6 7 1 2
BITMAP
78
0C
0C
0C
0C
0C
FC
ENDCHAR
STARTCHAR $05DC
ENCODING 1500
SWIDTH 520 0
DWIDTH 8 0
BBX 6 9 1 0
BITMAP
C0
C0
FC
0C
0C
0C
18
38
30
ENDCHAR
STARTCHAR $05DD
ENCODING 1501
SWIDTH 600 0
DWIDTH 9 0
BBX 7 7 1 2
BITMAP
FC
C6
46
46
46
46
7E
ENDCHAR
STARTCHAR $05DE
ENCODING 1502
SWIDTH 640 0
DWIDTH 9 0
BBX 7 7 1 2
BITMAP
4C
66
62
62
62
42
CE
ENDCHAR
STARTCHAR $05DF
ENCODING 1503
SWIDTH 360 0
DWIDTH 6 0
BBX 3 10 1 -2
BITMAP
E0
20
20
20
20
20
20
20
20
20
ENDCHAR
STARTCHAR $05E0
ENCODING 1504
SWIDTH 440 0
DWIDTH 7 0
BBX 4 7 1 1
BITMAP
70
30
10
10
10
10
F0
ENDCHAR
STARTCHAR $05E1
ENCODING 1505
SWIDTH 600 0
DWIDTH 9 0
BBX 7 7 1 2
BITMAP
FC
66
46
46
46
66
3C
ENDCHAR
STARTCHAR $05E2
ENCODING 1506
SWIDTH 600 0
DWIDTH 9 0
BBX 7 8 1 -1
BITMAP
CE
62
66
26
3C
38
70
C0
ENDCHAR
STARTCHAR $05E3
ENCODING 1507
SWIDTH 560 0
DWIDTH 8 0
BBX 6 10 1 -2
BITMAP
60
FC
CC
CC
4C
0C
0C
0C
0C
0C
ENDCHAR
STARTCHAR $05E4
ENCODING 1508
SWIDTH 560 0
DWIDTH 8 0
BBX 7 7 1 2
BITMAP
70
7C
CE
EE
0E
0E
FC
ENDCHAR
STARTCHAR $05E5
ENCODING 1509
SWIDTH 600 0
DWIDTH 9 0
BBX 7 10 1 -2
BITMAP
4C
C6
6E
6C
38
30
18
18
0C
08
ENDCHAR
STARTCHAR $05E6
ENCODING 1510
SWIDTH 600 0
DWIDTH 9 0
BBX 7 7 1 1
BITMAP
CC
C6
64
3C
18
0C
FC
ENDCHAR
STARTCHAR $05E7
ENCODING 1511
SWIDTH 600 0
DWIDTH 9 0
BBX 7 10 1 -2
BITMAP
FE
06
06
CE
CC
D8
D8
C0
C0
80
ENDCHAR
STARTCHAR $05E8
ENCODING 1512
SWIDTH 520 0
DWIDTH 8 0
BBX 6 7 1 2
BITMAP
F8
0C
0C
0C
0C
0C
0C
ENDCHAR
STARTCHAR $05E9
ENCODING 1513
SWIDTH 720 0
DWIDTH 11 0
BBX 9 7 1 1
BITMAP
4D80
D980
5980
5900
4300
4700
7C00
ENDCHAR
STARTCHAR $05EA
ENCODING 1514
SWIDTH 640 0
DWIDTH 9 0
BBX 7 7 1 2
BITMAP
7E
62
62
62
62
62
E2
ENDCHAR
STARTCHAR $05F3
ENCODING 1523
SWIDTH 240 0
DWIDTH 4 0
BBX 2 4 1 6
BITMAP
40
40
C0
80
ENDCHAR
STARTCHAR $05F4
ENCODING 1524
SWIDTH 440 0
DWIDTH 7 0
BBX 5 4 1 6
BITMAP
58
58
D8
90
ENDCHAR
STARTCHAR $1E80
ENCODING 7808
SWIDTH 920 0
DWIDTH 13 0
BBX 12 14 1 0
BITMAP
0C00
0C00
0400
0000
CE30
CE30
CF20
CF20
5920
5960
71E0
71E0
70E0
70E0
ENDCHAR
STARTCHAR $1E81
ENCODING 7809
SWIDTH 760 0
DWIDTH 11 0
BBX 10 12 1 0
BITMAP
1000
1000
1800
0000
8880
CCC0
CCC0
4CC0
6C80
7F80
7700
3300
ENDCHAR
STARTCHAR $1E82
ENCODING 7810
SWIDTH 920 0
DWIDTH 13 0
BBX 12 14 1 0
BITMAP
0300
0200
0200
0000
CE30
CE30
CF20
CF20
5920
5960
71E0
71E0
70E0
70E0
ENDCHAR
STARTCHAR $1E83
ENCODING 7811
SWIDTH 760 0
DWIDTH 11 0
BBX 10 12 1 0
BITMAP
0C00
0C00
0800
0000
8880
CCC0
CCC0
4CC0
6C80
7F80
7700
3300
ENDCHAR
STARTCHAR $1E84
ENCODING 7812
SWIDTH 920 0
DWIDTH 13 0
BBX 12 12 1 1
BITMAP
1900
0900
C630
CE30
CF20
CF20
5920
5960
51E0
71E0
71E0
70E0
ENDCHAR
STARTCHAR $1E85
ENCODING 7813
SWIDTH 760 0
DWIDTH 11 0
BBX 10 10 1 1
BITMAP
3600
2400
0000
CCC0
CCC0
4CC0
4C80
6F80
7780
7700
ENDCHAR
STARTCHAR $1EF2
ENCODING 7922
SWIDTH 680 0
DWIDTH 10 0
BBX 8 14 1 0
BITMAP
10
10
10
00
C3
63
66
36
3C
1C
18
18
18
18
ENDCHAR
STARTCHAR $1EF3
ENCODING 7923
SWIDTH 640 0
DWIDTH 9 0
BBX 7 15 1 -3
BITMAP
20
20
20
00
84
CE
CE
CE
CE
CE
DE
6E
0C
7C
30
ENDCHAR
STARTCHAR $2000
ENCODING 8192
SWIDTH 520 0
DWIDTH 8 0
BBX 0 0 0 0
BITMAP
ENDCHAR
STARTCHAR $2001
ENCODING 8193
SWIDTH 1000 0
DWIDTH 14 0
BBX 0 0 0 0
BITMAP
ENDCHAR
STARTCHAR $2002
ENCODING 8194
SWIDTH 520 0
DWIDTH 8 0
BBX 0 0 0 0
BITMAP
ENDCHAR
STARTCHAR $2003
ENCODING 8195
SWIDTH 1000 0
DWIDTH 14 0
BBX 0 0 0 0
BITMAP
ENDCHAR
STARTCHAR $2004
ENCODING 8196
SWIDTH 320 0
DWIDTH 5 0
BBX 0 0 0 0
BITMAP
ENDCHAR
STARTCHAR $2005
ENCODING 8197
SWIDTH 240 0
DWIDTH 4 0
BBX 0 0 0 0
BITMAP
ENDCHAR
STARTCHAR $2006
ENCODING 8198
SWIDTH 160 0
DWIDTH 3 0
BBX 0 0 0 0
BITMAP
ENDCHAR
STARTCHAR $2007
ENCODING 8199
SWIDTH 160 0
DWIDTH 3 0
BBX 0 0 0 0
BITMAP
ENDCHAR
STARTCHAR $2008
ENCODING 8200
SWIDTH 120 0
DWIDTH 2 0
BBX 0 0 0 0
BITMAP
ENDCHAR
STARTCHAR $2009
ENCODING 8201
SWIDTH 200 0
DWIDTH 3 0
BBX 0 0 0 0
BITMAP
ENDCHAR
STARTCHAR $200A
ENCODING 8202
SWIDTH 40 0
DWIDTH 1 0
BBX 0 0 0 0
BITMAP
ENDCHAR
STARTCHAR $200E
ENCODING 8206
SWIDTH 280 0
DWIDTH 4 0
BBX 0 0 0 0
BITMAP
ENDCHAR
STARTCHAR $200F
ENCODING 8207
SWIDTH 280 0
DWIDTH 4 0
BBX 0 0 0 0
BITMAP
ENDCHAR
STARTCHAR $2010
ENCODING 8208
SWIDTH 600 0
DWIDTH 9 0
BBX 6 1 1 4
BITMAP
FC
ENDCHAR
STARTCHAR $2011
ENCODING 8209
SWIDTH 600 0
DWIDTH 9 0
BBX 6 1 1 4
BITMAP
FC
ENDCHAR
STARTCHAR $2012
ENCODING 8210
SWIDTH 600 0
DWIDTH 9 0
BBX 6 1 1 4
BITMAP
FC
ENDCHAR
STARTCHAR $2013
ENCODING 8211
SWIDTH 640 0
DWIDTH 9 0
BBX 7 1 1 4
BITMAP
FE
ENDCHAR
STARTCHAR $2014
ENCODING 8212
SWIDTH 640 0
DWIDTH 9 0
BBX 9 1 0 4
BITMAP
FF80
ENDCHAR
STARTCHAR $2018
ENCODING 8216
SWIDTH 240 0
DWIDTH 4 0
BBX 2 4 1 6
BITMAP
40
C0
C0
80
ENDCHAR
STARTCHAR $2019
ENCODING 8217
SWIDTH 240 0
DWIDTH 4 0
BBX 2 4 1 6
BITMAP
40
40
C0
80
ENDCHAR
STARTCHAR $201A
ENCODING 8218
SWIDTH 240 0
DWIDTH 4 0
BBX 2 4 1 0
BITMAP
40
40
C0
80
ENDCHAR
STARTCHAR $201C
ENCODING 8220
SWIDTH 480 0
DWIDTH 7 0
BBX 5 4 1 6
BITMAP
48
D8
D8
80
ENDCHAR
STARTCHAR $201D
ENCODING 8221
SWIDTH 440 0
DWIDTH 7 0
BBX 5 4 1 6
BITMAP
58
58
D8
90
ENDCHAR
STARTCHAR $201E
ENCODING 8222
SWIDTH 480 0
DWIDTH 7 0
BBX 5 4 1 0
BITMAP
58
58
D8
90
ENDCHAR
STARTCHAR $2020
ENCODING 8224
SWIDTH 280 0
DWIDTH 4 0
BBX 0 0 0 0
BITMAP
ENDCHAR
STARTCHAR $2021
ENCODING 8225
SWIDTH 280 0
DWIDTH 4 0
BBX 0 0 0 0
BITMAP
ENDCHAR
STARTCHAR $2022
ENCODING 8226
SWIDTH 320 0
DWIDTH 5 0
BBX 2 3 1 3
BITMAP
C0
C0
40
ENDCHAR
STARTCHAR $2026
ENCODING 8230
SWIDTH 920 0
DWIDTH 13 0
BBX 10 2 1 0
BITMAP
CC40
4440
ENDCHAR
STARTCHAR $202F
ENCODING 8239
SWIDTH 200 0
DWIDTH 3 0
BBX 0 0 0 0
BITMAP
ENDCHAR
STARTCHAR $2030
ENCODING 8240
SWIDTH 920 0
DWIDTH 13 0
BBX 12 10 1 1
BITMAP
7000
9000
9000
7200
0C00
3000
4E60
0890
0890
0E60
ENDCHAR
STARTCHAR $2039
ENCODING 8249
SWIDTH 480 0
DWIDTH 7 0
BBX 3 6 2 1
BITMAP
20
60
40
C0
60
20
ENDCHAR
STARTCHAR $203A
ENCODING 8250
SWIDTH 480 0
DWIDTH 7 0
BBX 4 6 2 1
BITMAP
80
C0
60
30
60
C0
ENDCHAR
STARTCHAR $2044
ENCODING 8260
SWIDTH 880 0
DWIDTH 13 0
BBX 10 10 1 1
BITMAP
00C0
0180
0300
0600
0400
0800
1000
3000
6000
C000
ENDCHAR
STARTCHAR $205F
ENCODING 8287
SWIDTH 240 0
DWIDTH 4 0
BBX 0 0 0 0
BITMAP
ENDCHAR
STARTCHAR $20AA
ENCODING 8362
SWIDTH 960 0
DWIDTH 14 0
BBX 12 7 1 1
BITMAP
FF30
6130
6130
6D30
6C20
6C60
6F80
ENDCHAR
STARTCHAR $20AC
ENCODING 8364
SWIDTH 560 0
DWIDTH 8 0
BBX 6 10 1 1
BITMAP
3C
30
20
F8
70
70
F8
20
20
3C
ENDCHAR
STARTCHAR $2122
ENCODING 8482
SWIDTH 880 0
DWIDTH 13 0
BBX 11 5 1 6
BITMAP
F660
26E0
27E0
25A0
25A0
ENDCHAR
STARTCHAR E000
ENCODING 57344
SWIDTH 520 0
DWIDTH 8 0
BBX 7 7 0 1
BITMAP
FE
FE
FE
FE
FE
FE
FE
ENDCHAR
STARTCHAR FB01
ENCODING 64257
SWIDTH 800 0
DWIDTH 12 0
BBX 10 11 1 0
BITMAP
0080
3D80
6000
FF80
71C0
61C0
61C0
61C0
61C0
71C0
F880
ENDCHAR
STARTCHAR FB02
ENCODING 64258
SWIDTH 800 0
DWIDTH 12 0
BBX 10 10 1 1
BITMAP
3DC0
21C0
61C0
FDC0
61C0
61C0
61C0
61C0
61C0
FFC0
ENDCHAR
STARTCHAR FB2A
ENCODING 64298
SWIDTH 720 0
DWIDTH 11 0
BBX 9 10 1 0
BITMAP
0100
0000
4980
DD80
5980
5900
4300
4300
7C00
7800
ENDCHAR
STARTCHAR FB2B
ENCODING 64299
SWIDTH 720 0
DWIDTH 11 0
BBX 10 10 -1 0
BITMAP
8000
0000
26C0
6EC0
2CC0
2CC0
2180
2180
3F00
3C00
ENDCHAR
STARTCHAR FB2C
ENCODING 64300
SWIDTH 720 0
DWIDTH 11 0
BBX 9 10 1 0
BITMAP
0100
0000
4980
DD80
5980
5900
4700
4300
7C00
7800
ENDCHAR
STARTCHAR FB2D
ENCODING 64301
SWIDTH 720 0
DWIDTH 11 0
BBX 10 10 -1 0
BITMAP
8000
0000
26C0
6EC0
2CC0
2CC0
2380
2180
3F00
3C00
ENDCHAR
STARTCHAR FB2E
ENCODING 64302
SWIDTH 600 0
DWIDTH 9 0
BBX 7 10 1 -2
BITMAP
CC
C6
66
FC
D8
CC
C4
00
70
30
ENDCHAR
STARTCHAR FB2F
ENCODING 64303
SWIDTH 600 0
DWIDTH 9 0
BBX 7 11 1 -3
BITMAP
CC
C6
66
FC
D8
CC
C4
00
70
30
20
ENDCHAR
STARTCHAR FB30
ENCODING 64304
SWIDTH 600 0
DWIDTH 9 0
BBX 7 7 1 0
BITMAP
CC
C6
66
FC
D8
DC
E4
ENDCHAR
STARTCHAR FB31
ENCODING 64305
SWIDTH 560 0
DWIDTH 8 0
BBX 7 7 1 2
BITMAP
78
0C
0C
2C
0C
0C
FE
ENDCHAR
STARTCHAR FB32
ENCODING 64306
SWIDTH 440 0
DWIDTH 7 0
BBX 5 7 1 1
BITMAP
70
10
10
50
30
78
D8
ENDCHAR
STARTCHAR FB33
ENCODING 64307
SWIDTH 560 0
DWIDTH 8 0
BBX 7 7 1 2
BITMAP
FE
1C
1C
5C
1C
1C
1C
ENDCHAR
STARTCHAR FB34
ENCODING 64308
SWIDTH 600 0
DWIDTH 9 0
BBX 6 7 1 2
BITMAP
F8
0C
2C
8C
CC
CC
CC
ENDCHAR
STARTCHAR FB35
ENCODING 64309
SWIDTH 360 0
DWIDTH 6 0
BBX 4 7 0 1
BITMAP
70
30
30
B0
30
30
30
ENDCHAR
STARTCHAR FB36
ENCODING 64310
SWIDTH 440 0
DWIDTH 7 0
BBX 5 7 1 2
BITMAP
F8
30
30
B0
30
30
30
ENDCHAR
STARTCHAR FB38
ENCODING 64312
SWIDTH 640 0
DWIDTH 9 0
BBX 7 7 1 1
BITMAP
DC
D2
D2
C6
D6
4C
78
ENDCHAR
STARTCHAR FB39
ENCODING 64313
SWIDTH 360 0
DWIDTH 6 0
BBX 4 4 0 4
BITMAP
70
30
B0
30
ENDCHAR
STARTCHAR FB3A
ENCODING 64314
SWIDTH 520 0
DWIDTH 8 0
BBX 6 10 1 -2
BITMAP
FC
0C
0C
2C
0C
0C
0C
0C
0C
08
ENDCHAR
STARTCHAR FB3B
ENCODING 64315
SWIDTH 520 0
DWIDTH 8 0
BBX 6 7 1 2
BITMAP
78
0C
0C
2C
0C
0C
FC
ENDCHAR
STARTCHAR FB3C
ENCODING 64316
SWIDTH 520 0
DWIDTH 8 0
BBX 6 9 1 0
BITMAP
C0
C0
FC
0C
0C
4C
18
38
30
ENDCHAR
STARTCHAR FB3E
ENCODING 64318
SWIDTH 640 0
DWIDTH 9 0
BBX 7 7 1 2
BITMAP
4C
66
62
62
62
42
CE
ENDCHAR
STARTCHAR FB40
ENCODING 64320
SWIDTH 440 0
DWIDTH 7 0
BBX 4 7 1 1
BITMAP
70
30
10
10
10
10
F0
ENDCHAR
STARTCHAR FB41
ENCODING 64321
SWIDTH 600 0
DWIDTH 9 0
BBX 7 7 1 2
BITMAP
FC
66
46
46
46
66
3C
ENDCHAR
STARTCHAR FB43
ENCODING 64323
SWIDTH 560 0
DWIDTH 8 0
BBX 6 10 1 -2
BITMAP
60
FC
EC
EC
4C
0C
0C
0C
0C
0C
ENDCHAR
STARTCHAR FB44
ENCODING 64324
SWIDTH 560 0
DWIDTH 8 0
BBX 7 7 1 2
BITMAP
70
7C
CE
EE
1E
0E
FC
ENDCHAR
STARTCHAR FB46
ENCODING 64326
SWIDTH 600 0
DWIDTH 9 0
BBX 7 7 1 1
BITMAP
CC
C6
64
3C
18
0C
FC
ENDCHAR
STARTCHAR FB47
ENCODING 64327
SWIDTH 600 0
DWIDTH 9 0
BBX 7 10 1 -2
BITMAP
FE
06
16
CE
CC
D8
D8
C0
C0
80
ENDCHAR
STARTCHAR FB48
ENCODING 64328
SWIDTH 520 0
DWIDTH 8 0
BBX 6 7 1 2
BITMAP
F8
0C
0C
4C
0C
0C
0C
ENDCHAR
STARTCHAR FB49
ENCODING 64329
SWIDTH 720 0
DWIDTH 11 0
BBX 9 7 1 1
BITMAP
4D80
D980
5980
5D00
4300
4700
7C00
ENDCHAR
STARTCHAR FB4A
ENCODING 64330
SWIDTH 640 0
DWIDTH 9 0
BBX 7 7 1 2
BITMAP
7E
62
62
6A
62
62
E2
ENDCHAR
STARTCHAR FB4B
ENCODING 64331
SWIDTH 360 0
DWIDTH 6 0
BBX 3 9 1 1
BITMAP
40
00
E0
60
60
60
60
60
60
ENDCHAR
ENDFONT
